<?xml version="1.0" standalone="no"?>
<!DOCTYPE svg PUBLIC "-//W3C//DTD SVG 20010904//EN"
 "http://www.w3.org/TR/2001/REC-SVG-20010904/DTD/svg10.dtd">
<svg version="1.0" xmlns="http://www.w3.org/2000/svg"
 width="390.000000pt" height="390.000000pt" viewBox="0 0 390.000000 390.000000"
 preserveAspectRatio="xMidYMid meet">
<metadata>
Created by potrace 1.14, written by Peter Selinger 2001-2017
</metadata>
<g transform="translate(0.000000,390.000000) scale(0.100000,-0.100000)"
fill="#000000" stroke="none">
<path d="M1904 3781 c3 -4 -6 -13 -19 -19 -14 -7 -25 -18 -25 -27 0 -8 -3 -15
-8 -15 -6 0 -9 -76 -3 -90 9 -21 10 -60 1 -60 -6 0 -10 -6 -9 -12 1 -7 -1 -21
-4 -30 -24 -63 -23 -61 -37 -117 -6 -24 -14 -49 -18 -55 -4 -6 -7 -13 -8 -16
-4 -26 -28 -97 -35 -106 -5 -7 -9 -16 -8 -20 4 -17 -21 -65 -30 -60 -5 4 -11
1 -13 -5 -10 -30 -65 -13 -157 49 -51 34 -96 62 -99 62 -3 0 -24 16 -48 35
-23 19 -49 35 -58 35 -9 0 -16 4 -16 8 0 5 -11 14 -24 21 -19 10 -26 26 -34
77 -8 46 -18 71 -36 89 -14 14 -26 23 -26 19 0 -3 -6 -1 -13 5 -8 6 -17 8 -21
4 -4 -4 -11 -1 -16 7 -7 10 -10 11 -10 3 0 -7 -6 -13 -14 -13 -7 0 -26 -18
-41 -40 -57 -82 -35 -218 41 -260 22 -13 35 -14 56 -6 16 6 28 14 28 19 0 4 5
5 10 2 5 -3 10 1 10 9 0 23 33 12 93 -33 30 -22 57 -37 61 -34 3 4 6 -2 6 -12
0 -10 3 -16 6 -12 6 5 88 -44 104 -62 3 -3 19 -13 35 -21 17 -8 38 -22 47 -30
17 -15 19 -54 5 -77 -4 -6 -3 -23 3 -38 5 -14 10 -35 10 -46 0 -15 -98 -170
-192 -303 -4 -6 -13 -4 -23 4 -9 8 -27 16 -38 17 -12 2 -25 7 -30 12 -11 11
-47 2 -47 -11 0 -5 -4 -6 -10 -3 -10 6 -101 -79 -99 -92 5 -30 -2 -35 -21 -18
-11 10 -20 15 -20 12 0 -4 -8 1 -18 11 -11 11 -33 25 -50 33 -18 8 -32 19 -32
25 0 7 -11 15 -25 18 -14 4 -36 16 -49 27 -13 12 -27 20 -30 20 -11 -3 -38 28
-41 47 -2 9 -4 18 -5 20 -4 3 -7 20 -9 36 -2 29 -52 76 -79 76 -41 -1 -80 -42
-87 -90 0 -3 -3 -9 -6 -15 -14 -26 6 -100 38 -136 28 -30 78 -33 99 -4 16 22
16 22 42 0 12 -11 25 -18 29 -17 3 2 9 0 12 -5 11 -15 99 -73 111 -73 6 0 9
-3 6 -8 -2 -4 13 -16 35 -26 21 -11 39 -23 39 -28 0 -4 7 -8 15 -8 16 0 16 -2
19 -70 2 -46 21 -117 37 -135 5 -5 9 -15 9 -22 0 -13 -56 -143 -85 -196 -8
-16 -13 -33 -9 -38 3 -5 1 -9 -4 -9 -10 0 -36 -58 -33 -72 1 -7 -10 -9 -34 -8
-9 1 -31 -23 -42 -45 -11 -22 -10 -88 1 -120 11 -32 41 -47 69 -34 24 11 66
69 50 69 -12 0 -4 104 8 108 5 2 9 7 9 12 0 4 12 34 27 66 15 33 27 61 28 64
3 18 31 70 37 70 5 0 8 8 8 18 1 26 27 55 41 46 26 -16 93 -10 117 11 13 11
27 20 30 19 4 -1 12 6 18 14 10 14 25 2 97 -72 86 -88 86 -89 81 -131 -3 -24
0 -46 5 -49 6 -4 7 -14 4 -22 -6 -17 12 -58 39 -88 10 -11 35 -21 58 -23 36
-4 45 0 75 32 19 19 35 42 35 51 0 29 19 51 50 58 17 3 29 10 25 15 -3 6 3 10
12 10 31 -1 54 7 62 20 5 7 11 12 15 12 23 -3 36 0 31 9 -4 6 5 10 20 10 17 0
24 4 19 12 -5 7 -2 9 9 5 8 -3 21 0 27 8 6 7 22 12 36 10 19 -2 22 1 14 11 -9
9 -7 12 7 10 24 -4 53 15 45 29 -3 5 1 4 10 -2 8 -7 18 -10 21 -6 4 3 7 -1 7
-11 0 -9 5 -14 10 -11 6 3 10 -1 10 -10 0 -19 13 -34 53 -59 17 -12 27 -14 27
-7 0 8 5 9 17 3 19 -11 83 14 83 32 1 6 8 -2 16 -17 8 -15 19 -25 24 -22 6 3
7 -1 4 -9 -4 -9 1 -18 10 -22 9 -3 13 -10 10 -15 -3 -5 2 -9 10 -9 9 0 15 -6
14 -12 -2 -7 3 -12 10 -10 8 1 11 -2 7 -8 -4 -6 1 -18 11 -25 11 -8 15 -15 11
-15 -7 0 0 -11 33 -48 8 -10 16 -35 18 -57 2 -22 7 -41 13 -43 5 -2 9 -10 9
-19 0 -33 60 -61 83 -39 7 7 19 15 27 19 10 4 11 6 2 6 -8 1 -6 8 8 23 15 16
17 24 8 30 -9 5 -9 8 -2 8 13 0 11 43 -2 75 -11 28 -54 73 -54 57 0 -10 -5
-10 -20 -2 -17 9 -20 8 -20 -7 0 -14 -2 -15 -9 -4 -7 11 -9 11 -14 0 -4 -10
-6 -9 -6 4 -1 9 -5 17 -11 17 -5 0 -10 5 -10 10 0 11 -10 24 -42 61 -10 10
-18 24 -18 29 0 6 -4 10 -10 10 -5 0 -10 7 -10 16 0 8 -4 12 -10 9 -5 -3 -10
1 -10 11 0 9 -10 25 -21 35 -15 13 -19 24 -13 36 7 17 15 78 14 113 0 8 0 30
0 48 0 17 -3 32 -8 32 -5 0 -9 6 -9 14 0 19 -43 87 -53 81 -4 -2 -14 3 -22 13
-13 14 -15 67 -13 342 1 179 3 328 4 332 2 11 40 0 57 -17 9 -8 21 -12 27 -8
7 3 9 3 5 -2 -4 -4 11 -24 34 -44 22 -20 54 -48 70 -63 17 -15 35 -25 41 -21
5 3 7 2 4 -4 -3 -5 3 -17 14 -26 10 -9 19 -15 19 -12 0 3 8 -3 18 -12 11 -10
17 -21 15 -26 -3 -4 0 -6 5 -5 15 5 59 -48 72 -87 6 -19 16 -35 21 -35 6 0 7
-4 4 -10 -3 -5 -1 -10 4 -10 6 0 10 -3 9 -7 -3 -14 13 -53 22 -53 5 0 7 -10 5
-21 -3 -12 -2 -19 2 -16 7 8 33 -39 33 -59 0 -8 5 -14 11 -14 6 0 9 -6 6 -13
-5 -15 18 -39 29 -29 4 4 4 1 0 -6 -9 -16 24 -93 37 -85 6 3 7 1 3 -5 -6 -10
24 -74 44 -96 5 -5 6 -15 3 -22 -3 -8 -1 -14 5 -14 5 0 9 -15 9 -32 0 -50 24
-93 50 -92 20 1 54 26 53 39 0 3 0 6 1 8 8 25 5 37 -9 37 -11 0 -13 3 -5 8 8
5 8 13 -2 32 -8 14 -14 21 -15 15 0 -5 -11 3 -25 19 -13 16 -22 33 -19 37 3 5
0 9 -5 9 -6 0 -11 5 -11 12 0 24 -42 98 -52 91 -7 -4 -8 -1 -3 6 9 15 -24 93
-36 85 -4 -2 -6 5 -4 16 2 11 -1 20 -6 20 -6 0 -8 4 -5 8 3 5 -2 18 -12 28 -9
11 -18 26 -20 34 -4 21 -34 82 -52 104 -8 11 -10 16 -3 13 8 -5 8 -1 0 18 -7
14 -15 25 -19 25 -16 0 -7 48 12 70 11 12 17 26 14 31 -3 5 3 6 12 2 14 -5 16
-3 11 11 -4 10 -3 15 3 11 12 -7 44 41 35 54 -4 7 1 8 11 4 13 -5 16 -3 11 10
-4 10 -2 14 7 11 12 -5 42 42 37 59 -1 5 3 6 8 2 6 -3 15 4 21 15 6 11 7 20 3
20 -4 1 5 8 20 16 15 8 25 19 22 24 -3 5 -1 12 5 15 6 4 10 3 9 -2 -4 -22 3
-28 31 -28 17 -1 30 3 30 7 0 4 7 8 15 8 8 0 15 6 15 14 0 8 5 16 11 18 15 5
19 109 5 127 -9 12 -8 13 4 6 13 -8 13 -7 1 8 -7 9 -11 17 -7 17 3 0 -2 9 -11
19 -9 11 -20 18 -25 15 -4 -3 -8 0 -8 7 0 8 -10 9 -32 5 -30 -6 -42 -16 -49
-41 -1 -5 -9 -16 -16 -24 -8 -7 -12 -19 -9 -27 3 -7 0 -15 -7 -18 -8 -3 -8 -5
2 -5 10 -1 11 -4 2 -15 -7 -9 -8 -17 -2 -20 5 -3 7 -15 4 -26 -3 -11 -10 -17
-16 -13 -6 4 -8 0 -4 -11 4 -10 3 -15 -3 -11 -6 3 -10 1 -10 -5 0 -6 -4 -9 -9
-5 -5 3 -15 -11 -21 -30 -6 -19 -15 -33 -18 -31 -4 2 -12 -2 -19 -9 -10 -11
-10 -15 0 -18 7 -3 4 -6 -6 -6 -10 -1 -15 -5 -12 -11 3 -5 -1 -10 -10 -10 -8
0 -19 -8 -22 -17 -7 -19 -8 -20 -53 -72 -17 -19 -30 -38 -30 -43 0 -4 -12 -8
-26 -8 -14 0 -23 3 -21 8 2 4 -4 15 -15 25 -10 9 -18 14 -18 10 0 -4 -7 3 -16
15 -8 12 -20 22 -26 22 -5 0 -19 11 -30 25 -11 14 -24 23 -29 19 -5 -3 -8 -1
-7 4 4 15 -52 63 -64 56 -7 -4 -8 -2 -4 5 4 7 -5 18 -23 29 -17 9 -31 22 -31
29 0 6 -4 13 -9 15 -8 3 -20 52 -24 101 -1 10 -8 21 -15 26 -8 5 -14 12 -15
17 -1 5 -5 8 -9 6 -5 -1 -8 4 -8 12 0 9 -14 14 -45 14 -25 1 -43 -3 -40 -8 3
-5 1 -11 -5 -15 -5 -3 -10 -1 -10 5 0 6 -5 8 -10 5 -6 -4 -9 -3 -8 2 4 14 -26
53 -41 53 -8 0 -12 3 -8 6 5 6 -6 23 -51 72 -12 14 -33 38 -45 54 -12 15 -28
28 -35 28 -7 0 -10 5 -7 10 4 6 -12 28 -34 48 -30 27 -41 45 -41 67 0 35 -38
117 -51 109 -5 -3 -9 2 -9 10 0 9 -7 16 -16 16 -8 0 -13 -4 -10 -9z m80 -242
c10 -18 24 -28 31 -25 8 3 12 0 9 -8 -6 -15 55 -88 67 -80 5 3 6 -2 3 -10 -3
-8 3 -19 15 -26 12 -6 21 -15 21 -21 0 -6 18 -28 40 -49 21 -20 36 -40 33 -44
-4 -3 2 -6 12 -6 10 0 15 -3 12 -7 -4 -3 0 -14 9 -24 10 -11 12 -19 4 -24 -5
-3 -7 -11 -3 -18 4 -6 6 -28 5 -48 -2 -29 4 -43 30 -70 l33 -34 0 -315 c0
-270 -2 -317 -15 -327 -20 -15 -24 -11 -116 110 -42 56 -83 109 -91 117 -7 8
-32 40 -55 70 -24 30 -45 57 -48 60 -3 3 -23 30 -45 60 -22 30 -48 61 -57 68
-10 7 -16 18 -13 23 4 5 2 9 -4 9 -17 0 -44 48 -48 87 -2 21 -12 51 -22 68
-10 16 -17 35 -16 40 2 6 18 57 35 115 18 57 33 109 35 115 1 5 4 17 8 25 3 8
17 54 31 102 14 47 32 89 39 91 28 12 44 5 61 -24z m-168 -689 c8 0 14 -4 14
-10 0 -9 64 -98 79 -110 3 -3 25 -30 48 -61 23 -31 48 -63 57 -72 9 -8 16 -20
16 -26 0 -6 4 -11 8 -11 4 0 19 -18 32 -39 14 -21 28 -37 31 -35 3 1 18 -16
32 -39 15 -23 37 -53 50 -67 26 -28 41 -70 25 -70 -6 0 -8 -9 -5 -20 3 -10 0
-21 -7 -23 -6 -2 -11 -23 -11 -48 0 -35 -4 -46 -22 -55 -13 -6 -21 -13 -18
-16 3 -3 -6 -4 -20 -3 -14 2 -25 0 -25 -3 0 -9 -50 -32 -67 -32 -7 0 -13 -8
-13 -17 0 -15 -2 -16 -10 -3 -8 13 -10 13 -15 -1 -3 -8 -18 -16 -33 -17 -15
-1 -28 -7 -30 -12 -2 -6 -9 -10 -15 -10 -7 0 -29 -9 -50 -20 -41 -22 -67 -26
-67 -9 0 28 -35 80 -63 94 -40 20 -52 19 -87 -7 l-29 -21 -35 39 c-19 21 -57
63 -84 92 -46 49 -49 55 -42 88 10 43 5 151 -8 184 -5 14 -10 30 -10 35 0 10
56 96 68 105 4 3 9 10 11 16 8 23 104 163 115 168 6 2 23 -2 38 -9 17 -9 26
-10 26 -3 0 6 3 9 6 5 12 -11 65 23 77 50 9 21 13 23 15 10 2 -9 10 -17 18
-17z m875 -1107 c13 -16 12 -17 -3 -4 -10 7 -18 15 -18 17 0 8 8 3 21 -13z"/>
<path d="M1327 1493 c-10 -3 -14 -9 -10 -16 4 -8 1 -7 -9 1 -9 7 -18 9 -20 5
-3 -4 -4 -63 -3 -130 0 -68 -3 -123 -8 -123 -4 0 -5 -6 -2 -12 3 -7 -2 -3 -11
10 -9 12 -23 22 -30 22 -8 0 -14 4 -14 9 0 5 -11 8 -25 6 -14 -1 -25 3 -25 9
0 7 -3 7 -8 1 -4 -5 -20 -11 -37 -13 -16 -2 -31 -8 -33 -13 -2 -5 -10 -9 -18
-9 -9 0 -12 -4 -9 -10 3 -5 -1 -10 -9 -10 -9 0 -16 -4 -16 -8 0 -5 -8 -17 -18
-28 -10 -10 -19 -22 -19 -27 -1 -4 -9 -31 -18 -60 -18 -57 -26 -191 -13 -218
7 -16 19 -64 20 -86 1 -7 5 -13 9 -13 4 0 11 -9 14 -20 8 -25 48 -70 62 -70 6
0 16 -7 23 -15 7 -8 17 -12 22 -9 6 4 14 0 19 -7 7 -11 9 -11 9 -1 0 8 5 10
13 5 19 -12 38 -12 30 0 -4 6 0 8 10 4 9 -3 19 -2 22 4 4 5 12 6 18 3 7 -4 9
-4 5 1 -4 4 0 14 10 21 24 19 32 17 32 -6 0 -23 3 -24 83 -21 l32 1 0 400 c0
259 -4 400 -10 401 -5 1 -14 1 -19 0 -5 -1 -3 6 5 15 13 16 12 16 -8 6 -27
-15 -36 -15 -28 -2 3 6 5 9 3 9 -2 -1 -11 -3 -21 -6z m-93 -388 c37 -28 49
-66 48 -145 -1 -53 -4 -67 -20 -97 -7 -13 -9 -23 -5 -23 16 0 -33 -29 -50 -30
-12 0 -16 -5 -11 -12 6 -10 4 -10 -7 0 -7 6 -19 12 -27 12 -35 0 -73 73 -73
143 0 64 9 109 22 118 6 3 10 9 9 13 0 4 6 14 15 22 8 9 15 12 15 8 0 -5 5 -3
12 4 15 15 40 11 72 -13z"/>
<path d="M2847 1493 c-10 -3 -14 -9 -10 -16 4 -7 0 -7 -10 1 -20 17 -43 6 -28
-12 6 -7 8 -15 5 -18 -3 -3 -5 -58 -5 -123 -1 -112 -1 -116 -18 -96 -10 11
-21 18 -25 14 -3 -3 -6 -1 -6 6 0 8 -7 11 -15 7 -8 -3 -15 0 -15 6 0 6 -3 8
-7 5 -3 -4 -12 -2 -20 4 -9 8 -13 8 -13 1 0 -6 -9 -9 -20 -7 -11 2 -20 0 -20
-5 0 -5 -6 -7 -14 -4 -24 9 -112 -91 -117 -133 -1 -5 -6 -19 -12 -33 -16 -39
-16 -198 0 -254 16 -55 50 -112 82 -138 12 -10 21 -15 21 -12 0 3 7 -2 16 -10
8 -9 20 -14 25 -11 5 4 9 0 9 -7 0 -8 3 -9 8 -3 9 13 32 18 32 7 0 -5 7 -9 15
-9 8 0 12 4 9 9 -3 4 3 8 14 8 10 0 28 9 40 20 25 24 47 26 38 5 -3 -9 1 -18
9 -21 8 -4 12 -11 8 -18 -4 -7 -1 -6 9 2 8 7 24 11 34 11 54 -5 51 -33 51 411
0 226 -4 410 -8 410 -4 0 -10 -4 -14 -10 -3 -5 -12 -7 -20 -4 -8 4 -12 10 -9
15 3 5 4 8 2 8 -2 -1 -11 -3 -21 -6z m-100 -383 c29 -18 46 -66 49 -139 3 -70
-6 -101 -39 -140 -18 -22 -29 -26 -60 -23 -22 1 -44 8 -51 15 -42 43 -56 176
-24 240 10 20 23 37 29 37 6 0 8 4 4 9 -12 20 60 21 92 1z"/>
<path d="M3535 1389 c3 -4 1 -10 -4 -13 -5 -4 -8 -17 -6 -31 1 -14 -2 -28 -7
-31 -4 -3 -5 -11 -1 -17 18 -28 2 -58 -26 -50 -23 6 -31 -16 -27 -77 2 -25 4
-48 5 -52 0 -3 12 -5 26 -4 13 2 22 -1 19 -5 -3 -5 -1 -9 4 -9 10 0 10 -69 0
-86 -4 -6 -4 -14 0 -18 3 -4 7 -49 8 -99 1 -51 4 -100 8 -109 9 -27 13 -42 14
-51 0 -10 62 -66 74 -68 19 -3 24 -5 35 -12 6 -4 13 -1 16 5 3 10 7 10 20 -1
11 -9 17 -10 17 -2 0 6 8 11 18 11 24 0 49 44 35 62 -6 7 -11 20 -11 28 -2 37
-22 83 -22 51 0 -8 -6 -11 -16 -7 -8 3 -12 2 -9 -4 3 -6 1 -10 -4 -10 -6 0
-11 5 -11 11 0 5 -4 8 -9 5 -5 -3 -15 2 -22 11 -10 11 -14 53 -15 147 -1 72 1
136 3 142 2 6 15 12 28 12 14 0 22 -5 19 -10 -4 -6 3 -5 14 1 30 16 36 29 35
84 -2 50 -18 76 -37 57 -14 -14 -28 -12 -20 3 6 9 5 9 -7 0 -18 -15 -35 -4
-34 22 0 11 -4 26 -9 33 -5 7 -5 12 1 12 10 0 9 21 -2 57 -7 21 -29 24 -57 7
-6 -4 -8 -3 -5 3 4 6 -4 11 -18 11 -14 0 -22 -4 -20 -9z"/>
<path d="M270 1273 c0 -5 -12 -8 -27 -7 -16 0 -38 -6 -50 -14 -13 -8 -23 -12
-23 -8 0 8 -69 -63 -71 -72 0 -4 -9 -21 -20 -38 -10 -17 -19 -40 -19 -50 0
-11 -7 -31 -14 -46 -8 -16 -11 -28 -5 -28 5 0 9 -5 9 -11 0 -5 -4 -7 -10 -4
-5 3 -10 0 -10 -9 0 -8 6 -17 13 -19 9 -4 9 -6 0 -6 -7 -1 -13 -8 -13 -16 0
-8 6 -15 13 -15 8 0 7 -4 -3 -10 -10 -6 -11 -10 -2 -10 7 0 12 -13 12 -29 0
-17 5 -33 11 -36 6 -4 8 -13 5 -21 -3 -8 -1 -14 4 -14 4 0 11 -14 15 -30 4
-17 11 -28 16 -24 5 3 9 0 9 -7 0 -17 71 -79 91 -79 10 0 21 -5 24 -10 5 -8
11 -8 20 0 10 8 14 7 18 -2 4 -9 6 -9 6 -1 1 7 11 10 28 7 15 -3 29 0 34 7 4
7 15 14 24 15 34 5 92 94 79 122 -4 10 -8 22 -9 27 0 6 -6 9 -13 7 -7 -1 -15
5 -18 13 -3 8 -10 12 -15 9 -5 -3 -9 0 -9 5 0 6 -4 11 -10 11 -5 0 -10 -5 -10
-10 0 -25 -85 -87 -95 -70 -3 6 -16 10 -27 10 -12 0 -18 3 -15 6 4 4 -2 14
-12 23 -25 22 -38 74 -36 141 4 90 42 142 102 142 36 0 52 -12 84 -61 7 -12
12 -13 15 -3 3 6 11 12 18 12 7 0 25 14 41 30 16 17 23 30 16 30 -7 0 -9 5 -6
10 3 6 2 10 -4 10 -6 0 -8 6 -6 13 3 6 -8 26 -25 42 -45 46 -54 52 -95 59 -5
1 -16 5 -22 9 -7 5 -13 4 -13 0z"/>
<path d="M1677 1269 c-9 -6 -21 -8 -26 -5 -5 3 -14 -1 -21 -9 -7 -8 -16 -12
-21 -10 -4 3 -17 -3 -29 -15 -11 -11 -18 -20 -14 -20 3 0 -6 -11 -20 -23 -14
-13 -23 -27 -19 -30 3 -4 1 -7 -6 -7 -7 0 -10 -4 -6 -9 3 -5 1 -12 -4 -15 -18
-11 -34 -118 -30 -201 3 -64 54 -195 76 -195 6 0 15 -9 18 -20 4 -11 10 -18
15 -15 5 3 11 1 15 -5 4 -6 10 -8 15 -5 4 3 11 -2 14 -11 3 -8 10 -12 16 -9 5
3 16 3 22 -1 17 -11 48 -12 42 -2 -3 4 -1 8 5 8 5 0 12 -6 14 -12 4 -10 6 -10
6 -1 1 7 8 10 16 7 8 -4 15 -1 15 6 0 6 4 9 9 5 5 -3 16 2 24 10 9 8 19 15 24
15 5 0 16 13 26 29 16 28 14 61 -4 61 -5 0 -8 3 -7 8 3 10 -25 52 -36 52 -5 0
-14 -7 -21 -16 -13 -18 -85 -46 -85 -33 0 5 -7 6 -15 3 -16 -7 -62 39 -76 75
-12 29 1 40 38 33 18 -3 24 -1 19 6 -5 8 -2 10 8 6 9 -3 13 -11 10 -18 -3 -6
2 -2 10 8 9 11 16 15 16 9 0 -7 13 -10 36 -7 22 3 33 1 29 -6 -3 -6 0 -7 9 -4
9 3 16 11 16 18 0 6 5 4 10 -4 5 -8 10 -11 10 -6 0 5 6 3 14 -3 11 -10 17 -8
25 6 6 10 11 12 11 6 0 -7 4 -13 9 -13 11 0 26 40 22 55 -1 5 -4 30 -6 55 -2
25 -6 52 -8 60 -15 57 -20 70 -29 70 -5 0 -6 5 -3 10 3 6 1 10 -4 10 -6 0 -10
6 -8 13 1 6 -4 11 -10 10 -7 -2 -13 3 -13 10 0 7 -9 20 -20 30 -11 9 -20 14
-20 11 0 -4 -11 1 -25 10 -14 9 -25 14 -25 11 0 -3 -8 -1 -18 4 -11 6 -24 6
-35 0z m38 -139 c-3 -5 0 -7 9 -4 9 4 23 -10 41 -40 23 -40 25 -48 12 -60 -11
-11 -17 -12 -26 -3 -8 8 -11 8 -11 -1 0 -14 -21 -12 -32 3 -5 6 -8 5 -8 -3 0
-10 -5 -10 -20 -2 -14 7 -20 7 -20 0 0 -12 -22 -9 -32 5 -5 6 -8 4 -8 -4 0
-11 -4 -10 -14 4 -11 16 -11 23 3 47 9 15 20 28 24 28 5 0 5 5 2 10 -6 9 8 14
28 11 4 0 7 3 7 7 0 4 11 9 26 10 14 1 23 -2 19 -8z"/>
<path d="M2196 1269 c3 -5 -4 -9 -15 -9 -11 0 -37 -15 -57 -32 l-37 -33 5 31
c4 32 0 34 -62 36 -59 1 -55 21 -53 -274 0 -150 1 -284 2 -298 1 -24 4 -26 51
-24 28 0 53 4 57 8 4 4 8 83 8 176 1 140 4 172 18 194 10 14 14 26 10 26 -5 0
5 9 21 19 17 11 33 18 38 15 4 -3 8 -1 8 4 0 6 8 9 18 8 15 -1 17 9 19 75 2
69 0 77 -18 82 -10 3 -17 1 -13 -4z"/>
<path d="M3244 1271 c3 -4 -11 -7 -31 -6 -46 3 -74 -5 -66 -18 3 -6 1 -7 -5
-3 -14 8 -64 -23 -56 -35 3 -5 -2 -9 -10 -9 -8 0 -22 -18 -32 -40 -10 -22 -21
-40 -24 -40 -3 0 -7 -11 -8 -26 -1 -14 -5 -33 -10 -42 -12 -26 -6 -173 8 -207
7 -16 14 -35 14 -41 1 -15 49 -84 59 -84 4 0 7 -7 7 -15 0 -8 3 -14 8 -14 22
4 42 -2 37 -11 -6 -9 14 -14 43 -11 6 1 12 -3 12 -10 0 -8 4 -8 15 1 11 9 15
9 15 1 0 -9 5 -9 20 -1 11 6 25 8 30 5 6 -3 10 -1 10 5 0 6 4 9 8 6 5 -3 16 4
25 15 10 11 23 17 29 13 6 -4 8 -3 4 4 -3 6 -1 14 7 19 24 15 63 95 71 146 1
7 5 18 9 25 5 7 3 12 -5 12 -8 0 -9 3 -3 8 6 4 10 23 9 42 -4 75 -9 112 -16
116 -4 3 -8 16 -8 30 0 13 -4 24 -10 24 -5 0 -10 6 -10 13 0 23 -62 98 -76 93
-8 -3 -14 -1 -14 4 0 5 -14 15 -30 24 -17 8 -28 11 -26 7z m-14 -153 c0 -5 5
-6 11 -3 16 10 59 -43 60 -75 1 -3 5 -11 11 -17 7 -9 7 -13 -1 -13 -7 0 -8 -8
-2 -24 5 -13 6 -40 1 -60 -4 -20 -6 -36 -4 -36 5 0 -27 -51 -42 -67 -6 -7 -14
-9 -18 -6 -3 4 -6 1 -6 -6 0 -17 -57 -4 -81 18 -57 53 -58 212 -2 268 29 29
73 41 73 21z"/>
<path d="M639 1259 c-7 -4 -17 -5 -21 -3 -4 3 -8 0 -8 -5 0 -6 -7 -11 -16 -11
-8 0 -12 -4 -9 -10 3 -5 -1 -10 -9 -10 -9 0 -16 -7 -16 -16 0 -8 -4 -13 -9
-10 -12 8 -60 -103 -68 -156 -5 -39 -7 -125 -3 -138 1 -3 4 -18 6 -35 3 -16 9
-31 15 -33 5 -2 9 -14 9 -26 0 -12 9 -32 19 -43 11 -12 17 -24 14 -27 -4 -3
-1 -6 6 -6 7 0 9 -4 6 -10 -3 -5 1 -10 10 -10 8 0 18 -6 21 -14 3 -8 12 -12
20 -9 8 3 14 0 14 -6 0 -6 12 -11 26 -11 17 0 23 -4 18 -12 -5 -9 -2 -9 9 1
14 11 17 11 17 0 0 -11 2 -11 10 1 8 12 10 12 10 1 0 -11 3 -11 15 -1 8 7 24
10 35 7 11 -3 17 -1 14 4 -3 5 3 12 13 15 25 9 83 72 83 90 0 8 5 14 11 14 6
0 9 6 6 14 -3 8 -2 16 3 18 15 5 27 86 25 163 -2 43 -11 92 -24 126 -23 61
-79 129 -106 129 -9 0 -13 5 -10 10 7 11 4 12 -72 15 -28 1 -57 -1 -64 -6z
m91 -144 c41 -21 64 -69 65 -140 2 -105 -34 -167 -99 -168 -60 -1 -102 73 -98
173 4 77 37 126 100 149 2 1 16 -6 32 -14z"/>
<path d="M1786 421 c-4 -6 -11 -9 -16 -6 -12 8 -45 -26 -45 -45 1 -17 22 -15
45 4 8 7 20 16 26 19 13 8 57 -27 47 -37 -3 -3 -1 -6 5 -6 6 0 10 -15 9 -35
-2 -26 -6 -33 -19 -31 -10 1 -20 5 -23 8 -4 3 -18 0 -32 -7 -15 -8 -30 -12
-35 -9 -4 3 -8 -1 -8 -10 0 -8 -4 -16 -10 -18 -14 -5 -23 -75 -10 -83 6 -3 8
-10 5 -15 -3 -4 6 -15 19 -23 27 -18 94 -18 101 0 8 24 23 13 20 -14 -2 -25
-2 -26 11 -8 9 12 13 42 11 92 -1 40 1 73 5 73 4 0 3 12 -1 28 -4 15 -6 32 -4
38 5 14 -30 79 -43 79 -5 0 -15 4 -21 8 -8 5 -13 3 -13 -5 0 -10 -2 -10 -9 1
-6 9 -11 10 -15 2z m24 -141 c0 -5 -5 -10 -11 -10 -5 0 -7 5 -4 10 3 6 8 10
11 10 2 0 4 -4 4 -10z m-16 -32 c-6 -10 -4 -10 7 -2 8 5 20 9 27 8 6 -1 19 -2
27 -3 11 -1 13 -9 8 -33 -3 -18 -10 -35 -15 -36 -4 -2 -6 -8 -2 -13 5 -8 -9
-13 -28 -10 -5 0 -8 -5 -8 -12 0 -7 -9 -13 -20 -13 -10 0 -17 2 -15 5 3 2 -2
9 -10 15 -9 6 -18 23 -20 38 -4 20 1 31 21 47 31 24 38 26 28 9z"/>
<path d="M1969 415 c-4 -18 -2 -283 2 -312 1 -7 6 -10 11 -7 5 3 6 10 3 15 -4
5 -2 9 4 9 5 0 8 12 5 26 -3 18 -1 23 7 18 8 -5 9 -3 3 7 -11 18 -13 79 -2 85
4 3 3 14 -3 25 -7 14 -7 24 0 33 7 9 7 16 0 23 -8 8 -7 13 2 18 8 5 10 4 5 -3
-4 -7 -2 -12 3 -12 6 0 11 6 11 14 0 7 8 20 17 27 15 12 16 12 8 -1 -6 -12 -5
-13 6 -2 17 15 43 16 33 0 -5 -8 -2 -9 9 -5 16 6 23 -8 18 -35 0 -5 3 -8 8 -8
5 0 7 -10 3 -22 -5 -21 -4 -22 14 -8 18 14 18 14 2 -5 -13 -15 -14 -24 -6 -39
6 -10 6 -16 1 -13 -11 7 -9 -85 2 -104 5 -8 4 -10 -3 -5 -8 5 -10 2 -6 -9 4
-9 11 -14 17 -12 12 4 17 76 5 83 -5 3 -5 10 -2 16 4 6 9 30 10 52 2 23 6 50
8 61 2 11 5 26 5 33 1 7 6 10 11 7 6 -3 10 -1 10 5 0 7 6 10 14 7 8 -3 17 -1
20 6 5 9 7 9 12 -1 3 -6 9 -10 14 -7 18 11 34 -62 32 -156 -1 -59 3 -101 9
-105 18 -11 22 4 21 93 -1 125 -4 163 -14 163 -4 0 -8 5 -8 11 0 6 -7 17 -15
25 -8 9 -15 13 -15 10 0 -3 -12 -1 -26 4 -18 7 -23 7 -18 -2 5 -8 0 -9 -14 -6
-12 4 -22 2 -22 -4 0 -5 -6 -15 -13 -21 -15 -14 -41 -21 -33 -9 8 13 -27 38
-46 34 -10 -2 -18 2 -18 10 0 10 -3 9 -10 -2 -5 -8 -10 -11 -10 -7 0 15 -40
-14 -40 -29 0 -8 -4 -13 -9 -9 -6 3 -8 14 -6 25 2 12 0 18 -5 15 -4 -3 -10 0
-12 7 -3 7 -7 4 -9 -7z"/>
<path d="M1549 406 c-13 -6 -28 -21 -34 -33 -6 -11 -15 -27 -21 -34 -23 -32 0
-189 28 -189 5 0 7 -4 4 -9 -6 -9 14 -21 43 -27 8 -1 18 -9 22 -16 8 -12 13
-4 10 16 -1 5 6 6 16 4 10 -3 24 1 31 9 7 7 9 13 5 13 -4 0 -2 4 6 9 8 5 11
16 7 27 -6 16 -8 15 -27 -4 -71 -77 -155 55 -103 163 16 34 74 67 74 43 0 -6
3 -8 7 -5 3 4 11 -1 18 -10 8 -11 18 -14 31 -9 19 7 19 8 0 22 -11 8 -16 14
-11 14 5 0 4 5 -3 12 -17 17 -74 19 -103 4z"/>
</g>
</svg>
